# xmcd CD database file
#
# Track frame offsets:
#	150
#	14470
#	30434
#	47802
#	63870
#	76486
#	96495
#	112084
#	129823
#	143854
#	159224
#	179543
#
# Disc length: 2619 seconds
#
# Revision: 0
# Processed by: cddbd v1.5.1PL2 Copyright (c) Steve Scherf et al.
# Submitted via: CDex 1.51
#
DISCID=990a390c
DTITLE=Various Artist - Musica total en verano
DYEAR=1900
DGENRE=Salsa
TTITLE0=Vive la vida "sube que sube"
TTITLE1=Vytas meets mozart (Radio mix)
TTITLE2=Noche de Vela
TTITLE3=Dale don Dale
TTITLE4=Para llenarme de ti
TTITLE5=Oye le Boom
TTITLE6=Quiero una chica
TTITLE7=Te quese tanto
TTITLE8=Una vieja y un Viejo
TTITLE9=Semos chicas almodobar
TTITLE10=El mario de la carnicera
TTITLE11=Fuente de energia
EXTD=
EXTT0=
EXTT1=
EXTT2=
EXTT3=
EXTT4=
EXTT5=
EXTT6=
EXTT7=
EXTT8=
EXTT9=
EXTT10=
EXTT11=
PLAYORDER=
